<?xml version="1.0" standalone="no"?>
<!DOCTYPE svg PUBLIC "-//W3C//DTD SVG 20010904//EN"
 "http://www.w3.org/TR/2001/REC-SVG-20010904/DTD/svg10.dtd">
<svg version="1.0" xmlns="http://www.w3.org/2000/svg"
 width="225.000000pt" height="225.000000pt" viewBox="0 0 225.000000 225.000000"
 preserveAspectRatio="xMidYMid meet">

<g transform="translate(0.000000,225.000000) scale(0.100000,-0.100000)"
fill="#000000" stroke="none">
<path d="M0 1125 l0 -1125 1125 0 1125 0 0 1125 0 1125 -1125 0 -1125 0 0
-1125z m1984 676 l31 -31 3 -348 c3 -387 0 -410 -61 -456 -48 -36 -1550 -550
-1605 -550 -46 1 -82 26 -108 76 -20 39 -21 683 0 732 24 59 71 82 333 170
136 46 340 116 453 156 113 40 349 121 525 181 357 122 374 124 429 70z"/>
<path d="M1745 1768 c-66 -22 -376 -129 -690 -238 -314 -109 -607 -210 -652
-224 -62 -21 -89 -36 -113 -62 l-30 -35 0 -345 c0 -305 2 -349 17 -374 17 -29
51 -50 82 -50 32 0 1565 531 1585 548 45 41 46 53 46 411 0 360 -2 380 -47
400 -38 17 -69 12 -198 -31z m163 -385 l-3 -338 -123 -42 -122 -42 2 341 3
341 110 38 c61 21 116 38 123 38 10 1 12 -70 10 -336z m-290 -231 l-3 -157
-122 158 -123 157 0 118 0 118 123 40 122 40 3 -158 c1 -88 1 -230 0 -316z
m-214 62 c114 -147 206 -268 204 -269 -2 -1 -57 -21 -123 -44 l-120 -42 -22
25 c-11 14 -28 35 -37 48 l-16 22 -87 -28 c-49 -16 -94 -31 -100 -33 -10 -4
-13 13 -13 64 l0 69 55 18 c30 9 55 20 55 23 0 3 -25 39 -55 79 l-55 73 0 115
0 114 43 15 c23 9 47 16 53 16 6 1 105 -119 218 -265z m-344 -99 c0 -173 -3
-315 -7 -315 -5 1 -61 69 -126 153 l-118 152 3 123 3 124 105 38 c58 21 113
38 123 39 16 1 17 -20 17 -314z m-462 -346 l-3 -172 -123 -42 c-81 -27 -125
-38 -128 -31 -2 6 -3 159 -2 340 l3 329 125 42 125 42 3 -169 c1 -92 1 -245 0
-339z m246 236 c108 -137 192 -252 188 -256 -14 -13 -232 -80 -241 -75 -5 3
-43 50 -85 105 l-76 99 0 198 c0 122 4 194 9 189 5 -6 98 -122 205 -260z"/>
</g>
</svg>
