<?xml version="1.0" standalone="no"?>
<!DOCTYPE svg PUBLIC "-//W3C//DTD SVG 20010904//EN"
 "http://www.w3.org/TR/2001/REC-SVG-20010904/DTD/svg10.dtd">
<svg version="1.0" xmlns="http://www.w3.org/2000/svg"
 width="300.000000pt" height="168.000000pt" viewBox="0 0 300.000000 168.000000"
 preserveAspectRatio="xMidYMid meet">

<g transform="translate(0.000000,168.000000) scale(0.100000,-0.100000)"
fill="#000000" stroke="none">
<path d="M0 840 l0 -840 1500 0 1500 0 0 840 0 840 -1500 0 -1500 0 0 -840z
m1590 776 c0 -8 12 -17 27 -21 15 -3 32 -13 38 -22 17 -22 74 -8 85 22 12 31
26 33 174 24 104 -6 131 -11 139 -24 8 -14 11 -15 25 -2 20 17 129 8 174 -14
25 -13 26 -17 29 -109 2 -52 3 -155 3 -228 1 -129 0 -134 -23 -151 -13 -10
-21 -24 -19 -32 3 -8 -2 -22 -10 -32 -15 -17 -14 -22 8 -63 22 -39 25 -57 23
-126 -2 -53 -7 -84 -15 -90 -9 -5 -6 -8 10 -8 19 0 22 -5 22 -37 6 -430 4
-603 -5 -603 -5 1 -32 7 -59 14 -57 15 -97 11 -89 -10 6 -16 3 -16 -111 -14
-43 1 -88 5 -101 10 -12 5 -26 5 -31 0 -5 -4 -70 -10 -144 -12 -104 -3 -143
-8 -168 -22 -22 -11 -37 -14 -45 -8 -7 6 -34 13 -60 17 -39 6 -51 4 -68 -11
-21 -19 -21 -18 -45 11 -28 36 -11 34 -339 36 -143 1 -269 5 -281 9 -19 8 -20
16 -22 151 -2 117 1 147 15 168 9 14 18 54 21 93 4 61 2 71 -17 89 -18 17 -21
31 -21 102 0 71 3 84 20 95 24 15 26 58 4 90 -12 17 -14 35 -9 71 4 32 1 71
-9 112 -20 83 -22 137 -7 226 7 39 11 118 9 175 l-3 103 190 -2 c105 -2 231
-5 280 -8 84 -6 93 -4 130 19 37 23 50 25 158 26 93 0 117 -3 117 -14z"/>
<path d="M925 1342 c-22 -8 -42 -17 -44 -19 -4 -3 335 -358 590 -618 75 -77
181 -187 234 -245 53 -58 104 -108 113 -111 10 -4 54 -10 99 -14 l82 -7 21 34
c21 34 67 173 77 232 5 32 2 36 -60 80 -35 25 -69 46 -75 46 -6 0 -23 11 -39
24 -15 13 -91 65 -168 116 -77 51 -151 100 -165 110 -204 138 -310 208 -330
218 -54 27 -76 42 -93 63 -25 32 -155 109 -180 108 -12 -1 -40 -8 -62 -17z"/>
<path d="M1762 1320 c-57 -15 -105 -30 -108 -33 -10 -9 260 -209 285 -211 11
-1 17 9 19 29 1 17 7 48 12 70 25 109 25 110 -26 144 -26 17 -55 31 -63 30 -9
0 -62 -13 -119 -29z"/>
<path d="M947 567 c-45 -107 -57 -157 -39 -157 5 0 20 -10 33 -21 67 -59 86
-69 134 -69 46 0 103 15 192 50 l42 16 -153 147 c-85 81 -156 147 -158 147 -2
0 -24 -51 -51 -113z"/>
</g>
</svg>
