<?xml version="1.0" standalone="no"?>
<!DOCTYPE svg PUBLIC "-//W3C//DTD SVG 20010904//EN"
 "http://www.w3.org/TR/2001/REC-SVG-20010904/DTD/svg10.dtd">
<svg version="1.0" xmlns="http://www.w3.org/2000/svg"
 width="338.000000pt" height="676.000000pt" viewBox="0 0 338.000000 676.000000"
 preserveAspectRatio="xMidYMid meet">

<g transform="translate(0.000000,676.000000) scale(0.100000,-0.100000)"
fill="#000000" stroke="none">
<path d="M0 3380 l0 -3380 1690 0 1690 0 0 3380 0 3380 -1690 0 -1690 0 0
-3380z m2906 954 c72 -58 79 -74 82 -195 l4 -109 59 0 59 0 0 -85 0 -85 -60 0
-60 0 0 -345 0 -345 60 0 60 0 0 -85 0 -85 -60 0 -60 0 0 -94 c0 -59 -5 -106
-15 -128 -15 -38 -73 -94 -112 -109 -14 -5 -470 -9 -1129 -9 -1216 0 -1140 -4
-1206 64 -44 45 -58 92 -58 195 l0 81 -55 0 -55 0 0 86 0 85 55 -2 56 -3 2
347 2 347 -57 0 -58 0 0 85 0 85 54 0 54 0 4 98 c3 84 7 104 31 144 16 28 44
57 70 72 l42 26 1127 -3 1126 -2 38 -31z"/>
<path d="M2906 4305 c4 -8 11 -15 16 -15 6 0 5 6 -2 15 -7 8 -14 15 -16 15 -2
0 -1 -7 2 -15z"/>
<path d="M652 4198 c-15 -15 -18 -1353 -3 -1363 12 -7 2160 -7 2172 0 5 4 9
281 9 680 0 656 -1 675 -19 685 -30 16 -2143 14 -2159 -2z m475 -192 l28 -24
0 -266 c0 -263 0 -266 -23 -288 -19 -20 -35 -23 -112 -26 l-90 -4 0 -199 0
-199 -85 0 -85 0 0 489 0 489 31 26 c30 25 35 26 169 26 132 0 140 -1 167 -24z
m263 -406 l0 -430 55 0 55 0 0 430 0 430 88 0 87 0 -5 -496 -5 -496 -24 -19
c-21 -17 -41 -19 -191 -19 -167 0 -169 0 -199 26 l-31 26 0 489 0 489 85 0 85
0 0 -430z m746 424 c45 -12 54 -50 54 -228 l0 -166 -30 0 -30 0 0 -85 0 -85
30 0 30 0 0 -201 0 -201 -29 -29 -29 -29 -142 0 -142 0 -29 29 -29 29 0 201 0
201 -29 0 -29 0 0 85 1 85 29 0 28 0 0 171 0 171 29 29 29 29 134 0 c73 0 142
-3 154 -6z m525 -4 c36 -20 49 -63 49 -170 l0 -100 -85 0 -85 0 0 55 0 55 -60
0 -60 0 0 -345 0 -345 60 0 60 0 0 145 0 145 -30 0 -30 0 0 85 0 85 75 0 c151
0 155 -8 155 -315 0 -250 -5 -281 -49 -305 -11 -6 -91 -10 -186 -10 l-167 0
-29 29 -29 29 0 457 0 457 29 29 29 29 167 0 c95 0 175 -4 186 -10z"/>
<path d="M930 3715 l0 -145 30 0 30 0 0 145 0 145 -30 0 -30 0 0 -145z"/>
<path d="M1960 3745 l0 -115 30 0 30 0 0 115 0 115 -30 0 -30 0 0 -115z"/>
<path d="M1960 3315 l0 -145 30 0 30 0 0 145 0 145 -30 0 -30 0 0 -145z"/>
<path d="M2895 2720 c-3 -6 1 -7 9 -4 18 7 21 14 7 14 -6 0 -13 -4 -16 -10z"/>
</g>
</svg>
