<?xml version="1.0" standalone="no"?>
<!DOCTYPE svg PUBLIC "-//W3C//DTD SVG 20010904//EN"
 "http://www.w3.org/TR/2001/REC-SVG-20010904/DTD/svg10.dtd">
<svg version="1.0" xmlns="http://www.w3.org/2000/svg"
 width="860.000000pt" height="280.000000pt" viewBox="0 0 860.000000 280.000000"
 preserveAspectRatio="xMidYMid meet">

<g transform="translate(0.000000,280.000000) scale(0.100000,-0.100000)"
fill="#000000" stroke="none">
<path d="M310 1281 l0 -1109 68 13 c37 7 147 28 245 46 l177 32 0 409 0 408
155 0 155 0 0 98 c0 55 3 160 7 235 l6 137 -161 0 -162 0 0 180 0 180 185 0
c169 0 185 1 185 18 0 9 9 112 20 227 11 116 20 216 20 223 0 9 -97 12 -450
12 l-450 0 0 -1109z"/>
<path d="M7845 2326 l-370 -31 -3 -1002 -2 -1003 22 -4 c23 -5 756 -57 791
-56 16 0 17 18 17 245 l0 245 -175 0 -175 0 0 185 0 185 150 0 150 0 0 215 0
215 -155 0 -155 0 0 144 c0 170 -14 156 156 156 61 0 132 3 158 6 l46 7 0 263
0 264 -42 -1 c-24 -1 -209 -16 -413 -33z"/>
<path d="M5280 2280 c0 -5 14 -186 30 -401 17 -216 30 -401 28 -412 -2 -10
-77 164 -167 387 -90 224 -166 408 -170 410 -3 2 -89 -14 -191 -35 -102 -21
-186 -38 -187 -39 -2 0 -3 -389 -3 -865 l0 -865 220 0 220 0 -1 33 c0 17 -6
178 -13 357 -7 179 -12 326 -11 328 1 1 76 -174 165 -390 90 -216 163 -394
164 -394 1 -1 85 5 189 14 l187 16 0 265 c0 146 -3 566 -7 934 l-6 667 -224 0
c-140 0 -223 -4 -223 -10z"/>
<path d="M1650 2249 c-133 -22 -273 -124 -339 -248 -84 -159 -111 -295 -118
-607 -8 -354 21 -545 108 -722 94 -192 246 -283 474 -283 228 0 380 91 474
283 87 177 116 368 108 722 -7 312 -34 448 -118 607 -105 197 -326 290 -589
248z m155 -408 c26 -51 36 -199 36 -521 0 -410 -19 -567 -68 -558 -59 11 -76
167 -70 631 4 370 13 444 53 474 21 15 30 10 49 -26z"/>
<path d="M2432 1338 l3 -913 219 -3 c121 -1 224 2 228 6 5 5 14 128 19 273 5
145 11 268 12 273 2 5 43 -128 91 -295 49 -167 92 -308 96 -312 7 -8 466 26
475 35 2 2 -49 166 -115 364 l-119 361 50 53 c99 106 152 257 152 435 0 263
-128 492 -330 592 l-77 38 -353 3 -353 3 2 -913z m551 464 c37 -35 57 -108 57
-207 0 -133 -42 -230 -110 -253 l-30 -11 0 256 0 255 28 -7 c15 -3 39 -18 55
-33z"/>
<path d="M3560 2015 l0 -235 125 0 125 0 0 -670 0 -670 245 0 245 0 0 630 0
630 130 0 130 0 0 235 0 234 -32 5 c-31 5 -929 76 -955 76 -10 0 -13 -54 -13
-235z"/>
<path d="M5840 1285 l0 -915 250 0 250 0 0 915 0 915 -250 0 -250 0 0 -915z"/>
<path d="M6845 2134 c-225 -12 -420 -23 -433 -23 l-22 -1 2 -232 3 -233 133
-3 132 -3 0 -659 0 -660 240 0 240 0 0 690 0 690 135 0 135 0 0 230 0 230 -77
-1 c-43 -1 -262 -12 -488 -25z"/>
</g>
</svg>
