<?xml version="1.0" standalone="no"?>
<!DOCTYPE svg PUBLIC "-//W3C//DTD SVG 20010904//EN"
 "http://www.w3.org/TR/2001/REC-SVG-20010904/DTD/svg10.dtd">
<svg version="1.0" xmlns="http://www.w3.org/2000/svg"
 width="750.000000pt" height="920.000000pt" viewBox="0 0 750.000000 920.000000"
 preserveAspectRatio="xMidYMid meet">

<g transform="translate(0.000000,920.000000) scale(0.100000,-0.100000)"
fill="#000000" stroke="none">
<path d="M0 4600 l0 -4600 3750 0 3750 0 0 4600 0 4600 -3750 0 -3750 0 0
-4600z m3818 1158 c20 -13 45 -27 56 -33 25 -13 51 -119 42 -168 -5 -27 -13
-38 -36 -46 -25 -8 -30 -16 -30 -41 0 -39 17 -45 79 -30 42 10 50 16 58 43 9
29 11 30 18 12 22 -55 23 -55 316 -55 247 0 273 -2 285 -17 12 -16 13 -10 14
40 0 31 5 57 10 57 6 0 10 -17 10 -37 0 -44 13 -69 29 -59 7 5 11 -3 11 -20
l0 -27 130 7 c124 7 130 6 130 -12 0 -18 -8 -19 -165 -17 -132 1 -165 -1 -165
-12 0 -16 2 -15 -127 -13 l-102 2 -52 -52 -51 -51 15 -65 14 -64 -23 -6 c-19
-5 -25 -16 -35 -64 -9 -45 -19 -66 -48 -93 -62 -61 -83 -68 -152 -47 -32 10
-88 34 -124 54 -53 29 -67 33 -70 21 -3 -8 -7 -21 -9 -29 -2 -7 9 -24 26 -36
l31 -23 -7 -126 c-5 -87 -12 -136 -24 -161 -16 -32 -20 -35 -56 -32 l-39 3 5
-45 c4 -29 15 -58 32 -79 59 -72 107 -153 151 -260 26 -62 54 -119 61 -128 8
-8 14 -23 14 -32 0 -10 5 -26 12 -36 9 -15 9 -47 -2 -143 -8 -67 -15 -159 -16
-203 -2 -44 -5 -120 -9 -170 l-6 -90 38 -47 c26 -32 58 -57 101 -78 55 -26 62
-33 62 -59 0 -25 -4 -29 -37 -35 -63 -10 -135 -7 -193 9 -30 8 -81 15 -113 15
-37 0 -59 4 -62 13 -3 7 4 48 15 91 25 99 25 151 0 246 -11 41 -25 117 -30
168 -10 79 -9 95 4 114 19 27 21 111 3 126 -6 6 -28 12 -47 14 -32 3 -41 12
-102 103 -52 77 -75 103 -100 111 -18 6 -40 23 -48 38 -16 28 -30 34 -30 12 0
-7 -13 -29 -28 -49 -30 -37 -76 -154 -86 -219 -4 -23 -15 -42 -31 -52 -14 -9
-25 -22 -25 -30 0 -7 -9 -21 -21 -32 -32 -29 -49 -69 -49 -114 0 -25 -13 -72
-34 -118 -18 -43 -39 -94 -45 -115 -7 -20 -21 -42 -32 -47 -48 -26 -75 -137
-57 -241 15 -87 11 -91 -95 -87 -112 4 -117 20 -67 208 23 90 28 125 23 171
-5 49 -2 65 19 106 14 26 28 68 32 92 4 27 30 84 66 145 57 95 60 104 60 166
0 36 7 105 16 154 11 64 12 96 5 115 -10 27 -13 123 -5 154 3 9 12 17 21 17
13 0 15 10 10 63 -21 209 -22 190 7 218 l26 27 -34 6 c-20 4 -38 10 -40 15 -3
5 -1 48 5 97 6 49 13 108 15 131 l5 42 47 3 47 3 5 115 c5 98 10 124 34 178
48 103 149 172 213 143 13 -6 28 -11 33 -11 4 0 6 35 3 78 -4 57 -1 87 11 114
21 49 74 101 117 116 48 16 124 7 167 -20z m1463 -1233 c66 -24 122 -83 143
-152 l7 -23 -435 0 -436 0 0 -290 0 -290 333 2 332 3 0 100 0 100 -190 5
c-117 3 -198 9 -210 17 -33 19 -73 66 -90 106 l-15 37 355 0 355 0 0 -195 c0
-130 -4 -203 -12 -222 -22 -51 -59 -92 -102 -112 -40 -20 -60 -21 -419 -21
-295 0 -385 3 -410 14 -47 19 -114 97 -124 143 -4 21 -8 162 -8 313 0 315 6
351 66 411 65 65 82 67 470 68 288 1 354 -2 390 -14z m1215 0 c31 -9 63 -28
86 -52 67 -68 68 -77 68 -415 0 -272 -2 -307 -19 -343 -23 -51 -91 -112 -133
-120 -18 -3 -193 -5 -389 -3 l-356 3 -40 28 c-23 16 -53 51 -69 80 l-29 52 0
305 c0 300 0 306 24 353 25 52 71 92 128 113 57 20 660 20 729 -1z m-5169 -7
c61 -15 136 -86 154 -146 7 -23 9 -45 5 -50 -4 -4 -181 -8 -392 -10 l-384 -3
0 -259 0 -260 390 0 c380 0 390 0 390 -20 0 -55 -63 -140 -128 -172 -46 -22
-52 -23 -382 -23 -366 0 -383 2 -446 58 -20 16 -45 49 -57 71 -21 40 -22 51
-22 346 0 294 1 306 22 345 37 69 86 111 146 125 54 13 652 12 704 -2z m1263
-12 c66 -35 113 -95 121 -156 l4 -25 -407 -3 -408 -2 0 -80 0 -80 313 0 c360
0 392 -5 457 -70 56 -56 75 -125 67 -252 -7 -110 -25 -157 -81 -205 -63 -56
-79 -58 -461 -58 l-350 0 -55 31 c-56 32 -102 90 -116 147 l-6 27 416 0 416 0
0 84 0 85 -332 3 c-321 3 -334 4 -374 25 -47 25 -91 73 -111 120 -8 21 -13 72
-13 140 0 87 4 117 21 153 33 72 79 112 154 131 17 4 183 7 370 6 311 -2 343
-4 375 -21z m4183 -3 c-8 -2 -13 -22 -13 -44 0 -21 -4 -39 -10 -39 -5 0 -10
18 -10 39 0 22 -5 42 -12 44 -7 3 3 5 22 5 19 0 29 -2 23 -5z m67 -23 c7 -16
15 -30 19 -30 4 0 12 14 18 30 18 47 33 36 32 -22 -2 -53 -2 -53 -8 -13 l-7
40 -18 -40 -18 -40 -16 40 -17 40 -6 -40 c-6 -39 -6 -39 -8 13 -1 58 10 67 29
22z"/>
<path d="M4113 5273 c-3 -10 -17 -27 -31 -39 -24 -20 -24 -21 -8 -52 9 -18 21
-32 26 -32 16 0 70 91 70 117 0 18 -6 23 -25 23 -15 0 -28 -7 -32 -17z"/>
<path d="M5820 4060 l0 -300 309 0 309 0 7 113 c4 61 5 195 2 297 l-5 185
-311 3 -311 2 0 -300z"/>
</g>
</svg>
